<svg width="256" height="103" viewBox="0 0 256 103" fill="none" xmlns="http://www.w3.org/2000/svg">
<path d="M0 -46H256V53C256 66.2608 250.732 78.9785 241.355 88.3553C231.979 97.7322 219.261 103 206 103H50C36.7392 103 24.0215 97.7322 14.6447 88.3553C5.26784 78.9785 0 66.2608 0 53L0 -46Z" fill="#E0B973"/>
<path d="M87.605 47.245C88.235 47.245 88.235 47.26 88.235 47.68V49.84C88.235 51.235 88.16 51.385 87.47 51.475L87.14 51.52C87.02 51.61 87.02 51.955 87.14 52.045C87.86 52.015 88.595 52 89.345 52C90.035 52 90.77 52.015 91.52 52.045C91.64 51.955 91.64 51.61 91.52 51.52L91.16 51.46C90.47 51.34 90.38 51.235 90.38 49.84V44.26C90.38 42.865 90.47 42.73 91.16 42.625L91.46 42.58C91.58 42.49 91.58 42.145 91.46 42.055C90.77 42.085 90.08 42.1 89.345 42.1C88.625 42.1 87.89 42.085 87.065 42.055C86.945 42.145 86.945 42.49 87.065 42.58L87.47 42.64C88.16 42.745 88.235 42.865 88.235 44.26V46C88.235 46.435 88.235 46.45 87.605 46.45H84.485C83.87 46.45 83.855 46.435 83.855 46V44.26C83.855 42.865 83.945 42.715 84.59 42.625L84.905 42.58C85.025 42.49 85.025 42.145 84.905 42.055C84.245 42.085 83.495 42.1 82.82 42.1C82.1 42.1 81.32 42.085 80.585 42.055C80.465 42.145 80.465 42.49 80.585 42.58L80.945 42.625C81.635 42.715 81.71 42.865 81.71 44.26V49.84C81.71 51.235 81.635 51.385 80.945 51.475L80.585 51.52C80.465 51.61 80.465 51.955 80.585 52.045C81.35 52.015 82.1 52 82.82 52C83.495 52 84.245 52.015 85.1 52.045C85.22 51.955 85.22 51.61 85.1 51.52L84.62 51.46C83.945 51.37 83.855 51.235 83.855 49.84V47.68C83.855 47.26 83.87 47.245 84.485 47.245H87.605ZM107.04 41.86C103.905 41.86 101.685 44.155 101.685 47.125C101.685 50.26 103.875 52.24 106.89 52.24C110.115 52.24 112.305 50.275 112.305 47.005C112.305 43.96 110.16 41.86 107.04 41.86ZM109.905 47.2C109.905 49.63 109.14 51.55 107.175 51.55C104.73 51.55 104.085 48.61 104.085 46.78C104.085 44.275 105.075 42.55 106.92 42.55C108.78 42.55 109.905 44.635 109.905 47.2ZM125.277 49.84C125.277 51.235 125.187 51.37 124.512 51.445L123.837 51.52C123.717 51.61 123.717 51.955 123.837 52.045C124.887 52.015 125.667 52 126.387 52C127.062 52 127.812 52.015 128.787 52.045C128.892 51.955 128.892 51.61 128.787 51.52L128.187 51.445C127.512 51.355 127.422 51.235 127.422 49.84V43.225C127.422 42.835 127.467 42.79 127.827 42.79H128.727C129.852 42.79 130.062 43.495 130.317 44.455C130.392 44.575 130.797 44.545 130.872 44.41C130.842 43.555 130.947 42.34 131.097 41.83C131.067 41.785 130.962 41.725 130.872 41.725C130.782 41.725 130.737 41.74 130.677 41.77C130.542 42.085 130.317 42.1 129.327 42.1H123.747C122.607 42.1 122.562 42.04 122.487 41.785C122.427 41.74 122.352 41.725 122.277 41.725C122.202 41.725 122.127 41.755 122.067 41.8C121.962 42.385 121.887 43.315 121.572 44.35C121.662 44.545 121.947 44.575 122.127 44.485C122.577 43.39 122.892 42.79 123.987 42.79H124.917C125.277 42.79 125.277 42.865 125.277 43.225V49.84ZM143.975 43.375C143.975 42.82 143.975 42.79 144.47 42.79H145.67C146.405 42.79 146.855 42.97 147.14 43.255C147.335 43.465 147.545 43.915 147.71 44.44C147.86 44.575 148.205 44.545 148.265 44.38C148.19 43.375 148.085 42.295 148.07 42.055C147.875 42.085 147.02 42.1 146.06 42.1H142.88C142.16 42.1 141.425 42.085 140.72 42.055C140.57 42.145 140.555 42.49 140.69 42.58L141.065 42.655C141.74 42.79 141.83 42.88 141.83 44.245V49.84C141.83 51.22 141.74 51.31 141.065 51.415L140.36 51.52C140.24 51.595 140.24 51.955 140.36 52.045C141.485 52.015 142.22 52 142.94 52H144.89C146.12 52 147.56 52.015 148.355 52.045C148.565 51.64 148.925 50.425 148.985 49.645C148.925 49.465 148.55 49.405 148.43 49.57C147.605 51.265 147.095 51.31 145.79 51.31C144.695 51.31 144.41 51.19 144.215 50.92C144.035 50.665 143.975 50.185 143.975 49.495V47.71C143.975 47.26 143.99 47.245 144.395 47.245H145.43C146.21 47.245 146.39 47.365 146.54 48.085L146.615 48.46C146.72 48.595 147.095 48.58 147.17 48.445C147.14 47.965 147.125 47.425 147.125 46.855C147.125 46.285 147.14 45.745 147.17 45.265C147.095 45.13 146.72 45.13 146.615 45.25L146.54 45.625C146.39 46.345 146.21 46.45 145.43 46.45H144.395C143.99 46.45 143.975 46.42 143.975 46V43.375ZM161.867 44.26C161.867 42.865 161.957 42.745 162.632 42.64L163.022 42.58C163.142 42.49 163.142 42.145 163.022 42.055C162.272 42.085 161.522 42.1 160.802 42.1C160.082 42.1 159.332 42.085 158.552 42.055C158.372 42.145 158.372 42.49 158.522 42.58L158.957 42.64C159.632 42.73 159.722 42.865 159.722 44.26V49.84C159.722 51.235 159.632 51.355 158.957 51.445L158.387 51.52C158.267 51.61 158.297 51.955 158.432 52.045C159.362 52.015 160.112 52 160.802 52H162.812C164.042 52 165.482 52.015 166.277 52.045C166.487 51.64 166.847 50.395 166.922 49.615C166.817 49.435 166.472 49.375 166.352 49.525C165.467 51.265 165.047 51.31 163.682 51.31C162.587 51.31 162.317 51.19 162.122 50.935C161.927 50.695 161.867 50.215 161.867 49.51V44.26ZM182.941 49.195C182.941 47.545 181.756 46.675 180.826 46.18L179.836 45.655C179.086 45.265 178.471 44.635 178.471 43.945C178.471 43.195 179.011 42.55 180.001 42.55C181.081 42.55 181.726 43.645 181.981 44.41C182.116 44.56 182.491 44.545 182.566 44.365C182.566 43.36 182.416 42.55 182.296 42.22C182.116 42.19 181.981 42.16 181.786 42.1C181.186 41.92 180.571 41.86 180.076 41.86C177.901 41.86 176.581 43.03 176.596 44.725C176.596 46.21 177.781 47.11 178.861 47.65C179.761 48.1 180.901 48.82 180.901 50.035C180.901 50.785 180.391 51.55 179.281 51.55C178.006 51.55 177.001 50.17 176.701 49.195C176.581 49.03 176.236 49.045 176.131 49.24C176.131 50.26 176.326 51.34 176.611 51.67C176.926 51.85 177.781 52.24 179.161 52.24C181.426 52.24 182.941 51.04 182.941 49.195Z" fill="#14274A"/>
<path d="M51.28 10.36C51.28 6.64 51.52 6.32 53.32 6.04L54.36 5.88C54.68 5.64 54.68 4.72 54.36 4.48C52.36 4.56 50.36 4.6 48.44 4.6C46.52 4.6 44.52 4.56 42.44 4.48C41.96 4.72 41.96 5.64 42.36 5.88L43.52 6.04C45.32 6.28 45.56 6.64 45.56 10.36V25.24C45.56 28.96 45.32 29.28 43.52 29.52L42 29.72C41.68 29.96 41.76 30.88 42.12 31.12C44.6 31.04 46.6 31 48.44 31H53.8C57.08 31 60.92 31.04 63.04 31.12C63.6 30.04 64.56 26.72 64.76 24.64C64.48 24.16 63.56 24 63.24 24.4C60.88 29.04 59.76 29.16 56.12 29.16C53.2 29.16 52.48 28.84 51.96 28.16C51.44 27.52 51.28 26.24 51.28 24.36V10.36ZM73.3131 20.36C73.3131 24.72 74.1931 27.68 76.2731 29.4C78.4331 31.16 81.1531 31.64 84.1931 31.64C87.4331 31.64 90.3531 30.64 92.1131 28.76C94.3131 26.32 94.6731 22.88 94.6731 19.12V14.64C94.6731 11.4 94.8331 8.36 95.2731 7.32C95.6331 6.48 96.3931 6.24 97.4331 6L98.1531 5.84C98.4731 5.52 98.3931 4.72 98.1531 4.48C96.6331 4.56 95.1531 4.6 93.6731 4.6C92.0331 4.6 90.4731 4.56 88.3131 4.48C88.0731 4.72 87.9931 5.52 88.3131 5.84L89.3931 6.04C90.4731 6.24 91.3531 6.48 91.7131 7.32C92.1531 8.36 92.3131 11.4 92.3131 14.64V19.48C92.3131 24.96 90.7531 29.44 85.6331 29.44C79.5531 29.44 79.0331 24.28 79.0331 19.6V10.36C79.0331 6.64 79.2731 6.32 81.0731 6L82.0331 5.84C82.3531 5.6 82.3531 4.72 82.0331 4.48C80.1131 4.56 78.1531 4.6 76.1931 4.6C74.2731 4.6 72.2731 4.56 70.3531 4.48C69.9131 4.72 69.9531 5.6 70.2731 5.84L71.2731 6.04C73.0731 6.4 73.3131 6.64 73.3131 10.36V20.36ZM104.082 29.8C103.722 30.04 103.842 30.92 104.242 31.12C105.443 31.04 107.123 31 108.443 31C110.123 31 111.923 31.04 113.683 31.12C114.123 30.96 114.163 30 113.803 29.72L112.763 29.6C111.923 29.52 111.483 29.32 111.483 29.08C111.483 28.84 111.563 28.56 111.843 28C113.163 25.48 115.043 22.44 116.603 20.16C117.203 20.92 120.243 25.6 120.843 26.68C121.843 28.36 122.003 28.72 122.003 29.04C122.003 29.28 121.523 29.48 120.523 29.6L119.443 29.72C119.043 29.92 119.203 30.96 119.563 31.12C121.723 31.04 123.523 31 126.283 31C129.523 31 130.763 31.04 132.523 31.12C132.923 30.84 132.923 30 132.643 29.72L131.403 29.56C129.883 29.36 128.883 28.8 127.483 26.68C126.043 24.52 124.083 21.52 121.083 16.88C120.683 16.28 120.523 15.84 120.523 15.64C120.523 15.44 120.923 14.84 121.323 14.28C123.203 11.72 124.963 9.08 126.883 7.12C127.603 6.4 128.323 6.24 129.163 6.12L130.843 5.88C131.123 5.52 131.083 4.68 130.683 4.48C129.403 4.56 127.763 4.6 125.843 4.6C123.963 4.6 122.683 4.56 121.443 4.48C121.003 4.68 121.003 5.6 121.323 5.88L122.923 6.16C123.443 6.24 123.723 6.44 123.723 6.56C123.723 6.76 123.723 7.04 123.283 7.76C122.043 9.88 120.723 11.84 119.243 14.08C118.003 12.28 116.563 10.08 115.483 8.2C115.003 7.36 114.842 7 114.842 6.64C114.842 6.36 115.563 6.16 116.203 6.04L117.083 5.88C117.363 5.56 117.363 4.68 116.923 4.48C115.683 4.56 114.083 4.6 110.843 4.6C108.403 4.6 105.882 4.56 104.603 4.48C104.202 4.72 104.202 5.56 104.562 5.88L105.243 6C107.043 6.32 107.883 6.84 108.803 8.16C110.683 10.84 113.203 14.8 114.523 16.76C115.043 17.48 115.243 18 115.243 18.16C115.243 18.4 115.043 18.88 114.683 19.4C112.963 21.96 110.803 25.08 109.643 26.6C108.323 28.4 107.403 29.36 105.003 29.68L104.082 29.8ZM141.524 20.36C141.524 24.72 142.404 27.68 144.484 29.4C146.644 31.16 149.364 31.64 152.404 31.64C155.644 31.64 158.564 30.64 160.324 28.76C162.524 26.32 162.884 22.88 162.884 19.12V14.64C162.884 11.4 163.044 8.36 163.484 7.32C163.844 6.48 164.604 6.24 165.644 6L166.364 5.84C166.684 5.52 166.604 4.72 166.364 4.48C164.844 4.56 163.364 4.6 161.884 4.6C160.244 4.6 158.684 4.56 156.524 4.48C156.284 4.72 156.204 5.52 156.524 5.84L157.604 6.04C158.684 6.24 159.564 6.48 159.924 7.32C160.364 8.36 160.524 11.4 160.524 14.64V19.48C160.524 24.96 158.964 29.44 153.844 29.44C147.764 29.44 147.244 24.28 147.244 19.6V10.36C147.244 6.64 147.484 6.32 149.284 6L150.244 5.84C150.564 5.6 150.564 4.72 150.244 4.48C148.324 4.56 146.364 4.6 144.404 4.6C142.484 4.6 140.484 4.56 138.564 4.48C138.124 4.72 138.164 5.6 138.484 5.84L139.484 6.04C141.284 6.4 141.524 6.64 141.524 10.36V20.36ZM177.333 25.24C177.333 28.92 177.093 29.2 175.293 29.52L174.213 29.72C173.893 29.92 173.893 30.88 174.213 31.12C176.293 31.04 178.053 31 180.053 31C181.973 31 183.813 31.04 185.933 31.12C186.213 30.88 186.213 29.92 185.933 29.72L184.853 29.52C183.053 29.2 182.813 28.92 182.813 25.24V20.32C182.813 19.52 182.893 19.44 184.293 19.44C185.293 19.44 185.933 19.76 186.413 20.84C187.333 22.96 188.253 24.92 189.533 27.04C191.293 29.92 193.613 31.24 197.293 31.24C198.533 31.24 199.813 31.16 200.453 30.88C200.653 30.64 200.653 30.04 200.293 29.84C199.693 29.8 198.653 29.56 197.613 28.72C195.693 27.08 194.053 24.08 191.413 18.72C191.213 18.28 191.213 18.04 191.613 17.84C193.453 16.92 195.853 15.4 195.853 11.84C195.853 9.28 194.653 7.28 192.333 5.92C190.813 5 187.893 4.48 184.493 4.48C180.693 4.48 177.573 4.64 174.573 4.84C174.093 5.04 174.093 6.04 174.493 6.24L175.573 6.4C177.253 6.64 177.333 7.08 177.333 11.08V25.24ZM182.813 8.36C182.813 6.44 182.893 6.32 184.533 6.32C187.653 6.32 189.773 8.64 189.773 12.24C189.773 14.6 189.013 15.88 188.333 16.56C187.573 17.32 186.733 17.68 185.293 17.68C182.933 17.68 182.813 17.56 182.813 16.16V8.36ZM218.493 22.44C218.493 20.16 218.773 19.16 219.813 17.28L222.333 12.72C224.253 9.24 225.213 7.8 225.813 7.04C226.253 6.48 227.173 6.2 227.893 6.08L228.933 5.88C229.253 5.6 229.253 4.64 228.773 4.48C227.613 4.56 226.373 4.6 224.853 4.6C223.413 4.6 221.973 4.56 220.373 4.48C219.973 4.68 220.013 5.68 220.333 5.88L221.093 6.04C222.053 6.2 222.693 6.44 222.693 6.68C222.693 7.16 222.213 8.36 220.773 11.2C219.733 13.24 218.493 15.84 217.333 17.8C216.853 16.8 215.933 14.96 215.333 13.64L213.453 9.36C212.613 7.48 212.413 6.88 212.413 6.56C212.413 6.52 212.653 6.36 213.373 6.2L214.733 5.88C215.093 5.56 215.013 4.64 214.653 4.48C213.293 4.56 211.253 4.6 208.812 4.6C206.452 4.6 204.973 4.56 203.172 4.48C202.692 4.6 202.652 5.56 203.012 5.88L204.373 6.12C205.773 6.36 206.133 7 206.933 8.64L211.693 18.48C212.733 20.6 212.773 21.24 212.773 23.24V25.24C212.773 28.96 212.533 29.24 210.733 29.52L209.373 29.72C209.053 29.96 209.053 30.88 209.373 31.12C211.733 31.04 213.733 31 215.653 31C217.573 31 219.533 31.04 222.133 31.12C222.413 30.88 222.413 29.96 222.133 29.72L220.533 29.52C218.733 29.28 218.493 28.96 218.493 25.24V22.44Z" fill="#14274A"/>
</svg>
